<svg width="24px" height="24px" viewBox="0 0 24 24" xmlns="http://www.w3.org/2000/svg">
  <path fill-rule="evenodd" d="M19,2 C20.6568542,2 22,3.34314575 22,5 L22,19 C22,20.6568542 20.6568542,22 19,22 L5,22 C3.34314575,22 2,20.6568542 2,19 L2,5 C2,3.34314575 3.34314575,2 5,2 L19,2 Z M19,4 L5,4 C4.44771525,4 4,4.44771525 4,5 L4,19 C4,19.5522847 4.44771525,20 5,20 L19,20 C19.5522847,20 20,19.5522847 20,19 L20,5 C20,4.44771525 19.5522847,4 19,4 Z M8,14 C8.55228475,14 9,14.4477153 9,15 L9,17 C9,17.5522847 8.55228475,18 8,18 C7.44771525,18 7,17.5522847 7,17 L7,15 C7,14.4477153 7.44771525,14 8,14 Z M12,6 C12.5522847,6 13,6.44771525 13,7 L13,17 C13,17.5522847 12.5522847,18 12,18 C11.4477153,18 11,17.5522847 11,17 L11,7 C11,6.44771525 11.4477153,6 12,6 Z M16,10 C16.5522847,10 17,10.4477153 17,11 L17,17 C17,17.5522847 16.5522847,18 16,18 C15.4477153,18 15,17.5522847 15,17 L15,11 C15,10.4477153 15.4477153,10 16,10 Z"     style="fill: #3050ced9"/>
</svg>
