<svg  xmlns="http://www.w3.org/2000/svg" viewBox="0 0 880 760"><g id="l1iGKHozk37NXFc2QE8XR0c" fill="rgb(47,79,205)" style="transform: none;"><g><path id="ppasSmVvc" d="M629 680 c-72 -20 -104 -66 -96 -137 15 -136 209 -151 245 -19 26 92 -59 180 -149 156z"></path><path id="pe9rvYZro" d="M70 608 c-25 -9 -40 -40 -34 -65 9 -34 47 -43 185 -43 124 0 131 1 154 24 24 24 25 55 1 75 -13 11 -279 19 -306 9z"></path><path id="p9kcaWElL" d="M102 258 c-62 -31 -85 -137 -39 -189 46 -53 110 -64 170 -29 80 48 77 174 -7 214 -39 18 -90 20 -124 4z"></path><path id="pRXZ4eyvA" d="M448 189 c-22 -13 -24 -62 -2 -83 22 -23 305 -24 324 -1 18 22 15 66 -6 82 -22 16 -289 18 -316 2z"></path></g></g></svg>